<svg width="50" height="50" viewBox="0 0 50 50" fill="none" xmlns="http://www.w3.org/2000/svg">
<g clip-path="url(#clip0)">
<path d="M21.0677 36.6519V38.3835C21.0677 39.3454 21.8373 40.115 22.7992 40.115H23.0878C23.2033 40.6152 23.665 41 24.2037 41H25.1657C25.7044 41 26.1661 40.6152 26.2815 40.115H26.5701C27.5321 40.115 28.3017 39.3454 28.3017 38.3835V36.6519H21.0677Z" fill="#49494E"/>
<path d="M24.704 16.6239C26.5894 16.6816 28.3594 17.4704 29.6869 18.8172C31.0337 20.1832 31.7648 22.0109 31.7648 23.9156C31.7648 26.1089 30.7066 28.2252 28.8596 29.7451C28.0323 30.4377 27.1473 31.6305 26.7048 33.035H22.6838C22.2221 31.6305 21.3563 30.4377 20.5291 29.7451C18.6821 28.2444 17.6239 26.1089 17.6239 23.9348C17.6239 22.0109 18.355 20.2024 19.7018 18.8364C21.0293 17.4704 22.7993 16.6816 24.704 16.6239ZM24.704 14.7C19.7018 14.8347 15.7 18.9134 15.7 23.9348C15.7 26.9169 17.1814 29.495 19.2977 31.2457C20.0673 31.8806 21.0678 33.4005 21.0678 34.9781H28.3017C28.3017 33.4005 29.3214 31.8806 30.0717 31.2457C32.188 29.495 33.6694 26.9169 33.6694 23.9348C33.6887 18.9134 29.6869 14.8347 24.704 14.7Z" fill="#49494E"/>
<path opacity="0.3" d="M24.704 16.6239C26.5894 16.6816 28.3594 17.4704 29.6869 18.8172C31.0337 20.1832 31.7648 22.0109 31.7648 23.9156C31.7648 26.1089 30.7066 28.2252 28.8596 29.7451C28.0323 30.4377 27.1473 31.6305 26.7048 33.035H22.6838C22.2221 31.6305 21.3563 30.4377 20.5291 29.7451C18.6821 28.2444 17.6239 26.1089 17.6239 23.9348C17.6239 22.0109 18.355 20.2024 19.7018 18.8364C21.0293 17.4704 22.7993 16.6816 24.704 16.6239Z" fill="#49494E"/>
</g>
<defs>
<clipPath id="clip0">
<rect width="17.9887" height="26.3" fill="white" transform="translate(15.7 14.7)"/>
</clipPath>
</defs>
</svg>
