<svg width="50" height="50" viewBox="0 0 50 50" fill="none" xmlns="http://www.w3.org/2000/svg">
<g clip-path="url(#clip0)">
<path d="M24.6991 16.6685C26.5826 16.7261 28.3508 17.5141 29.6769 18.8595C31.0222 20.224 31.7526 22.0499 31.7526 23.9526C31.7526 26.1435 30.6955 28.2577 28.8505 29.776C28.024 30.4679 27.1399 31.6595 26.6979 33.0625H22.6811C22.2198 31.6595 21.355 30.4679 20.5285 29.776C18.6835 28.2577 17.6264 26.1435 17.6264 23.9526C17.6264 22.0306 18.3568 20.224 19.7021 18.8595C21.0282 17.4949 22.7964 16.7261 24.6991 16.6685ZM24.6991 14.7466C19.7213 14.8811 15.7237 18.9556 15.7237 23.9718C15.7237 26.9508 17.2036 29.5261 19.3177 31.2751C20.0865 31.9093 21.0859 33.4276 21.0859 35.0036H28.3123C28.3123 33.4276 29.3309 31.9093 30.0805 31.2751C32.1946 29.5261 33.6745 26.9508 33.6745 23.9718C33.6745 18.9363 29.6769 14.8619 24.6991 14.7466Z" fill="#BFBFBF"/>
<path d="M21.0859 36.6757V38.4054C21.0859 39.3664 21.8546 40.1351 22.8156 40.1351H23.1039C23.2192 40.6348 23.6805 41.0192 24.2186 41.0192H25.1796C25.7177 41.0192 26.179 40.6348 26.2943 40.1351H26.5826C27.5435 40.1351 28.3123 39.3664 28.3123 38.4054V36.6757H21.0859Z" fill="#BFBFBF"/>
<path d="M24.6991 13.2282C24.2186 13.2282 23.8343 12.8438 23.8343 12.3634V9.86486C23.8343 9.38438 24.2186 9 24.6991 9C25.1796 9 25.564 9.38438 25.564 9.86486V12.3634C25.564 12.8438 25.1796 13.2282 24.6991 13.2282Z" fill="#BFBFBF"/>
<path d="M17.7225 15.6306C17.4727 15.6306 17.2036 15.5153 17.0499 15.3039L15.5123 13.3435C15.224 12.9592 15.2817 12.421 15.6661 12.1327C16.0505 11.8444 16.5886 11.9021 16.8769 12.2865L18.4144 14.2469C18.7027 14.6312 18.645 15.1694 18.2607 15.4577C18.0877 15.573 17.8955 15.6306 17.7225 15.6306Z" fill="#BFBFBF"/>
<path d="M13.6865 21.8384C13.6096 21.8384 13.552 21.8384 13.4751 21.8192L11.0535 21.2042C10.5922 21.0889 10.3039 20.6276 10.4192 20.1471C10.5345 19.6859 10.9958 19.3976 11.4763 19.5129L13.8979 20.1087C14.3592 20.224 14.6475 20.6853 14.5321 21.1658C14.436 21.5694 14.0709 21.8384 13.6865 21.8384Z" fill="#BFBFBF"/>
<path d="M31.6757 15.6306C31.4835 15.6306 31.3105 15.573 31.1375 15.4384C30.7532 15.1502 30.6955 14.5928 30.9838 14.2276L32.5213 12.2673C32.8096 11.8829 33.367 11.8252 33.7321 12.1135C34.1165 12.4018 34.1742 12.9592 33.8859 13.3243L32.3483 15.2847C32.1946 15.5153 31.9447 15.6306 31.6757 15.6306Z" fill="#BFBFBF"/>
<path d="M35.7117 21.8384C35.3273 21.8384 34.9622 21.5694 34.8661 21.185C34.7507 20.7237 35.039 20.2432 35.5003 20.1279L37.9219 19.5321C38.3832 19.4168 38.8637 19.7051 38.979 20.1664C39.0943 20.6276 38.806 21.1081 38.3447 21.2234L35.9231 21.8192C35.8462 21.8192 35.7694 21.8384 35.7117 21.8384Z" fill="#BFBFBF"/>
</g>
<defs>
<clipPath id="clip0">
<rect width="28.5982" height="32" fill="white" transform="translate(10.4 9)"/>
</clipPath>
</defs>
</svg>
