<svg width="35" height="48" viewBox="0 0 35 48" fill="none" xmlns="http://www.w3.org/2000/svg">
<g clip-path="url(#clip0)">
<path d="M28.8133 34.2799C28.285 34.14 27.7813 33.9196 27.32 33.6266C26.5017 33.1384 25.7176 32.5949 24.9733 31.9999C24.76 31.8399 24.4933 31.5199 24.2266 31.6933C23.96 31.8666 24.1066 32.2266 24.1333 32.5066C24.3017 33.4437 24.2352 34.408 23.9397 35.3132C23.6442 36.2183 23.1289 37.036 22.44 37.6933C21.2559 38.7641 20.4044 40.1525 19.9866 41.6933C19.8495 42.124 19.7864 42.5748 19.8 43.0266C19.8 43.5866 20.04 43.7866 20.6 43.7866C21.52 43.7161 22.4336 43.578 23.3333 43.3733C24.2643 43.1566 25.2335 43.1646 26.1609 43.3964C27.0882 43.6282 27.9471 44.0773 28.6666 44.7066C28.9333 44.9592 29.1307 45.2759 29.24 45.6266C29.3113 45.776 29.3505 45.9387 29.3552 46.1043C29.3598 46.2698 29.3298 46.4344 29.267 46.5876C29.2042 46.7408 29.1101 46.8792 28.9906 46.9938C28.8711 47.1085 28.729 47.1968 28.5733 47.2533C27.5065 47.721 26.3513 47.953 25.1866 47.9333C23.8533 47.9333 22.6266 47.9333 21.3466 47.9333C20.8218 47.9217 20.3011 47.8365 19.8 47.6799C19.4798 47.5846 19.1992 47.3881 19 47.1199C18.9272 46.9911 18.82 46.8849 18.6904 46.8133C18.5609 46.7417 18.414 46.7075 18.2661 46.7144C18.1183 46.7213 17.9752 46.7691 17.8529 46.8525C17.7306 46.9358 17.6338 47.0515 17.5733 47.1866C17.3832 47.4338 17.1357 47.631 16.8523 47.7611C16.5689 47.8912 16.258 47.9503 15.9466 47.9333C14.1718 48.0778 12.3881 48.0778 10.6133 47.9333C9.89744 47.8696 9.19087 47.7265 8.50664 47.5066C8.23084 47.4682 7.97254 47.3491 7.76417 47.1644C7.5558 46.9796 7.40664 46.7375 7.33542 46.4683C7.26421 46.1991 7.2741 45.9148 7.36386 45.6512C7.45363 45.3876 7.61926 45.1564 7.83997 44.9866C8.35248 44.441 8.97257 44.0077 9.66105 43.7139C10.3495 43.4202 11.0915 43.2724 11.84 43.2799C12.9538 43.32 14.0611 43.4673 15.1466 43.7199C15.5042 43.7731 15.8652 43.7998 16.2266 43.7999C16.64 43.7999 16.8266 43.5599 16.8533 43.1599C16.8551 42.2116 16.5768 41.2839 16.0533 40.4933C15.4117 39.5631 14.6184 38.7474 13.7066 38.0799C12.8716 37.3838 12.2348 36.4799 11.8603 35.4594C11.4858 34.4388 11.3868 33.3376 11.5733 32.2666C11.5733 32.0666 11.72 31.8133 11.5733 31.6799C11.4266 31.5466 11.1066 31.6799 10.9066 31.7733L7.89331 33.6533C7.47617 33.9732 6.98581 34.184 6.46664 34.2666C6.86313 33.5926 7.35236 32.9777 7.91997 32.4399C8.8986 31.5102 9.82448 30.5264 10.6933 29.4933C10.914 29.2808 11.0822 29.0199 11.1846 28.7312C11.287 28.4425 11.3207 28.134 11.2832 27.8299C11.2457 27.5259 11.1379 27.2348 10.9684 26.9797C10.7989 26.7245 10.5723 26.5124 10.3066 26.3599C9.14844 25.469 8.13627 24.4028 7.30664 23.1999C6.31154 21.7743 5.7527 20.0899 5.69824 18.3522C5.64379 16.6145 6.09608 14.8984 6.99997 13.4133C8.5966 10.7134 10.4305 8.16109 12.48 5.7866C13.7095 4.24549 15.0461 2.793 16.48 1.43994C16.9551 0.971361 17.4937 0.571897 18.08 0.253272C18.342 0.0747929 18.6591 -0.00445143 18.9744 0.0297587C19.2896 0.0639687 19.5823 0.209394 19.8 0.439938C20.5563 1.07392 21.2404 1.78935 21.84 2.57327C24.4347 5.80501 26.616 9.34795 28.3333 13.1199C29.2095 15.2772 29.3967 17.6528 28.8691 19.9207C28.3416 22.1885 27.1251 24.2376 25.3866 25.7866C24.8002 26.2791 24.1761 26.7249 23.52 27.1199C23.4049 27.1694 23.3031 27.2452 23.2227 27.3412C23.1423 27.4371 23.0856 27.5507 23.057 27.6726C23.0285 27.7945 23.029 27.9214 23.0584 28.0431C23.0879 28.1648 23.1455 28.2779 23.2266 28.3733C23.5831 28.9278 24.0344 29.4153 24.56 29.8133C25.6666 30.9999 27 32.1466 28.12 33.3333C28.4052 33.6053 28.64 33.9259 28.8133 34.2799ZM10.1466 17.6666C10.0901 20.0149 10.9621 22.2907 12.5733 23.9999C13.8514 25.4431 15.5104 26.4967 17.36 27.0399C18.5952 27.4063 19.902 27.4604 21.1632 27.1974C22.4244 26.9345 23.6007 26.3627 24.5866 25.5333C26.3392 24.1612 27.5969 22.2555 28.1695 20.1047C28.7421 17.9539 28.5983 15.6751 27.76 13.6133C26.2292 10.2475 24.2854 7.0854 21.9733 4.19994C21.4751 3.51824 20.872 2.91972 20.1866 2.4266C20.0478 2.32966 19.8826 2.27768 19.7133 2.27768C19.544 2.27768 19.3788 2.32966 19.24 2.4266C18.7901 2.70107 18.3964 3.05852 18.08 3.47994C17.0533 4.71994 16.2666 6.14661 15.32 7.47994C13.9906 9.23325 12.7791 11.0728 11.6933 12.9866C10.792 14.3896 10.2684 16.0017 10.1733 17.6666H10.1466ZM23.2266 33.5733C23.2213 32.6961 22.9554 31.8403 22.4628 31.1145C21.9702 30.3887 21.273 29.8256 20.4598 29.4967C19.6466 29.1678 18.754 29.0879 17.8954 29.2672C17.0367 29.4465 16.2506 29.8768 15.637 30.5036C15.0233 31.1304 14.6097 31.9254 14.4486 32.7877C14.2876 33.65 14.3864 34.5407 14.7324 35.3467C15.0784 36.1528 15.6562 36.8378 16.3922 37.315C17.1283 37.7921 17.9895 38.0398 18.8666 38.0266C20.0372 38.0125 21.1549 37.5367 21.9765 36.7027C22.798 35.8687 23.2569 34.744 23.2533 33.5733H23.2266ZM22.4 44.7733C22.0202 44.7165 21.6322 44.7578 21.2728 44.8931C20.9135 45.0285 20.5946 45.2534 20.3466 45.5466C20.2501 45.6334 20.181 45.7465 20.1478 45.8721C20.1147 45.9976 20.1189 46.1301 20.16 46.2533C20.2933 46.4933 20.56 46.4933 20.8 46.4933C21.5326 46.4962 22.259 46.6271 22.9466 46.8799C23.7674 47.2135 24.6859 47.2135 25.5066 46.8799C25.8 46.7599 26.1066 46.5866 26.1466 46.2399C26.1866 45.8933 25.88 45.7199 25.6 45.5866C24.6042 45.1144 23.5268 44.8382 22.4266 44.7733H22.4ZM12.1333 47.1333H12.48C13.6439 46.7765 14.8412 46.5397 16.0533 46.4266C16.3866 46.4266 16.5066 46.1866 16.3466 45.8533C16.2568 45.6387 16.1224 45.4457 15.9523 45.2871C15.7822 45.1285 15.5803 45.0079 15.36 44.9333C14.6069 44.7129 13.8064 44.7129 13.0533 44.9333C12.2714 45.0604 11.5151 45.3125 10.8133 45.6799C10.24 46.0266 10.24 46.4533 10.8133 46.7999C11.2122 47.0354 11.6704 47.1511 12.1333 47.1333ZM19.2266 41.1599C19.2391 40.9779 19.2391 40.7953 19.2266 40.6133C19.1066 40.0399 18.8266 39.7866 18.2933 39.7866C17.76 39.7866 17.5333 40.0533 17.4133 40.6533C17.3142 41.5268 17.4816 42.4099 17.8933 43.1866C17.9733 43.3733 18.08 43.5599 18.28 43.5733C18.48 43.5866 18.6266 43.3733 18.7333 43.1999C19.0589 42.5693 19.2281 41.8697 19.2266 41.1599Z" fill="#BFBFBF"/>
<path d="M3.97332 34.6665H4.67999C5.39999 34.6665 5.61332 34.8265 5.59999 35.5598C5.60107 36.9543 5.48062 38.3463 5.23999 39.7198C5.23999 39.9198 5.17332 40.1865 4.94665 40.2265C4.71999 40.2665 4.59999 39.9598 4.51999 39.7865C4.34501 39.4484 4.22783 39.0833 4.17332 38.7065C4.17332 38.4798 4.17332 38.1865 3.87999 38.1065C3.58665 38.0265 3.47999 38.2665 3.31999 38.3998C2.92208 38.7512 2.47234 39.039 1.98665 39.2532C1.83999 39.3332 1.63999 39.4265 1.49332 39.2532C1.34665 39.0798 1.49332 38.9198 1.49332 38.7598C1.76845 38.246 2.10418 37.7671 2.49332 37.3332C2.49332 37.1998 2.65332 37.0932 2.71999 36.9598C2.99999 36.4665 2.90665 36.2798 2.31999 36.2265C1.71825 36.1894 1.12949 36.0355 0.586654 35.7732C0.453321 35.7065 0.319987 35.6265 0.333321 35.4532C0.354036 35.3852 0.39191 35.3238 0.44329 35.2747C0.49467 35.2257 0.557822 35.1907 0.626654 35.1732C1.0992 35.0262 1.58665 34.9323 2.07999 34.8932C2.70636 34.7822 3.33846 34.7065 3.97332 34.6665Z" fill="#BFBFBF"/>
<path d="M31.1333 34.6665C32.2591 34.6817 33.3804 34.8112 34.48 35.0532C34.68 35.0532 34.9467 35.1465 34.96 35.3732C34.9733 35.5998 34.7333 35.7065 34.5467 35.7732C34.0289 35.9892 33.4796 36.1198 32.92 36.1598C32.4133 36.1598 32.2667 36.4398 32.5467 36.8932C32.9605 37.4577 33.3347 38.0503 33.6667 38.6665C33.76 38.8798 33.88 39.1065 33.6667 39.2932C33.4533 39.4798 33.28 39.2932 33.0933 39.1998C32.6152 38.961 32.1676 38.6656 31.76 38.3198C31.32 37.9732 31.1067 38.0532 31.04 38.6265C30.977 39.0008 30.8742 39.3674 30.7333 39.7198C30.64 39.9598 30.5067 40.2398 30.2933 40.2532C30.08 40.2665 29.9733 39.8932 29.9467 39.6798C29.7362 38.2856 29.6426 36.8763 29.6667 35.4665C29.6667 34.9198 29.9333 34.7332 30.5067 34.7332L31.1333 34.6665Z" fill="#BFBFBF"/>
<path d="M27.0668 16.9601C27.1315 18.4859 26.6598 19.9861 25.7334 21.2001C25.4587 21.6096 25.0634 21.9233 24.6022 22.0977C24.141 22.2722 23.637 22.2986 23.1601 22.1735C22.6336 22.0071 22.1692 21.6866 21.8268 21.2535C21.6668 21.0801 21.5201 20.8801 21.3734 20.6935C20.9201 20.1468 20.5868 20.1735 20.2534 20.7868C19.9565 21.4077 19.5652 21.979 19.0934 22.4801C18.7626 22.8427 18.3531 23.1246 17.8964 23.3042C17.4397 23.4839 16.9479 23.5566 16.4587 23.5167C15.9695 23.4768 15.496 23.3254 15.0744 23.074C14.6529 22.8227 14.2945 22.4781 14.0268 22.0668C13.3727 21.1783 12.9095 20.1641 12.6663 19.0879C12.4231 18.0117 12.4051 16.8969 12.6134 15.8135C12.7665 14.3891 13.3743 13.052 14.3468 12.0001C14.6853 11.5981 15.1158 11.2836 15.6019 11.0835C16.0879 10.8833 16.615 10.8034 17.1385 10.8506C17.662 10.8977 18.1664 11.0704 18.6089 11.3541C19.0513 11.6378 19.4188 12.0241 19.6801 12.4801C19.8291 12.7261 19.9939 12.9621 20.1734 13.1868C20.6134 13.7335 21.0268 13.7201 21.5068 13.1868C21.7522 12.8301 22.0436 12.5073 22.3734 12.2268C22.7734 11.8538 23.2999 11.6463 23.8468 11.6463C24.3937 11.6463 24.9202 11.8538 25.3201 12.2268C26.2717 13.0997 26.8854 14.2798 27.0534 15.5601C27.1029 16.0253 27.1074 16.4941 27.0668 16.9601ZM19.8001 17.3335C19.843 16.1998 19.5658 15.0769 19.0001 14.0935C18.8073 13.7037 18.5112 13.3743 18.1439 13.1414C17.7767 12.9085 17.3525 12.7809 16.9178 12.7726C16.483 12.7644 16.0543 12.8757 15.6785 13.0946C15.3027 13.3134 14.9942 13.6313 14.7868 14.0135C14.231 14.8597 13.9175 15.8418 13.8801 16.8535C13.741 18.2468 14.1419 19.6404 15.0001 20.7468C15.1976 21.0259 15.4567 21.2558 15.7574 21.4187C16.058 21.5815 16.3922 21.6729 16.7339 21.6858C17.0755 21.6987 17.4156 21.6327 17.7277 21.493C18.0398 21.3533 18.3155 21.1436 18.5334 20.8801C19.3851 19.8984 19.8372 18.6326 19.8001 17.3335ZM26.1068 17.2001C26.185 16.0706 25.8796 14.9478 25.2401 14.0135C25.084 13.7656 24.8676 13.5613 24.6111 13.4197C24.3546 13.2782 24.0664 13.2039 23.7734 13.2039C23.4805 13.2039 23.1923 13.2782 22.9358 13.4197C22.6793 13.5613 22.4629 13.7656 22.3068 14.0135C21.8914 14.5631 21.625 15.2107 21.5334 15.8935C21.379 16.579 21.3704 17.2894 21.5082 17.9785C21.646 18.6676 21.9272 19.32 22.3334 19.8935C22.4872 20.1301 22.6976 20.3246 22.9456 20.4592C23.1936 20.5938 23.4713 20.6643 23.7534 20.6643C24.0356 20.6643 24.3133 20.5938 24.5613 20.4592C24.8093 20.3246 25.0197 20.1301 25.1734 19.8935C25.755 19.1236 26.0813 18.1913 26.1068 17.2268V17.2001Z" fill="#BFBFBF"/>
<path d="M19.88 34.8799C19.8842 34.9877 19.8654 35.0953 19.8248 35.1953C19.7842 35.2954 19.7227 35.3856 19.6445 35.4601C19.5663 35.5345 19.4731 35.5914 19.3712 35.627C19.2693 35.6626 19.1609 35.6761 19.0534 35.6665C18.8882 35.6663 18.7269 35.6167 18.5902 35.5239C18.4535 35.4312 18.3478 35.2997 18.2865 35.1463C18.2253 34.9929 18.2115 34.8246 18.2467 34.6633C18.282 34.5019 18.3648 34.3549 18.4845 34.241C18.6041 34.1271 18.7551 34.0517 18.918 34.0245C19.0809 33.9973 19.2482 34.0195 19.3984 34.0882C19.5486 34.1569 19.6747 34.2691 19.7606 34.4102C19.8464 34.5513 19.888 34.7149 19.88 34.8799Z" fill="#BFBFBF"/>
<path d="M17.9734 17.0401C17.992 17.5982 17.8873 18.1536 17.6667 18.6667C17.2934 19.3601 16.7467 19.4001 16.3334 18.7467C16.0628 18.1971 15.9221 17.5927 15.9221 16.9801C15.9221 16.3674 16.0628 15.763 16.3334 15.2134C16.3795 15.0878 16.463 14.9794 16.5727 14.9028C16.6824 14.8262 16.813 14.7852 16.9467 14.7852C17.0805 14.7852 17.2111 14.8262 17.3208 14.9028C17.4304 14.9794 17.514 15.0878 17.5601 15.2134C17.8641 15.7723 18.0072 16.4047 17.9734 17.0401Z" fill="#BFBFBF"/>
<path d="M23.0001 16.8534C22.9671 16.3931 23.0593 15.9324 23.2667 15.5201C23.3867 15.3067 23.5334 15.0801 23.8401 15.0801C24.1467 15.0801 24.2534 15.3067 24.3601 15.5201C24.5667 15.9342 24.6742 16.3906 24.6742 16.8534C24.6742 17.3162 24.5667 17.7726 24.3601 18.1867C24.1067 18.6934 23.6801 18.7067 23.3734 18.1867C23.1199 17.789 22.99 17.325 23.0001 16.8534Z" fill="#BFBFBF"/>
</g>
<defs>
<clipPath id="clip0">
<rect width="34.6267" height="48" fill="white" transform="translate(0.333374)"/>
</clipPath>
</defs>
</svg>
