<svg width="32" height="32" viewBox="0 0 32 32" fill="none" xmlns="http://www.w3.org/2000/svg">
<path d="M32 15.9935C31.9988 12.9361 31.1215 9.94305 29.4722 7.36868C27.8229 4.79431 25.4704 2.74639 22.6934 1.46736C19.9164 0.188326 16.8311 -0.268273 13.8027 0.151613C10.7742 0.571498 7.92949 1.85029 5.60522 3.8366C3.28094 5.82292 1.57443 8.43359 0.687704 11.3596C-0.199025 14.2856 -0.228848 17.4044 0.601767 20.3468C1.43238 23.2892 3.08865 25.932 5.37452 27.9624C7.66039 29.9928 10.4801 31.3258 13.5 31.8035V20.6135H9.44V15.9935H13.5V12.4735C13.5 8.47349 15.89 6.24349 19.5 6.24349C20.6993 6.26001 21.8957 6.36362 23.08 6.55349V10.4935H21.08C20.7381 10.4519 20.3913 10.4872 20.0648 10.5969C19.7383 10.7066 19.4405 10.8879 19.1932 11.1276C18.9459 11.3673 18.7553 11.6592 18.6353 11.9821C18.5154 12.3049 18.4691 12.6505 18.5 12.9935V15.9935H22.94L22.23 20.6135H18.5V31.8035C22.2645 31.208 25.6927 29.2882 28.1676 26.3898C30.6426 23.4914 32.0016 19.8048 32 15.9935Z" fill="#BFBFBF"/>
</svg>
