<svg width="31" height="33" viewBox="0 0 31 33" fill="none" xmlns="http://www.w3.org/2000/svg">
<path d="M26.0021 26.1417L30.3521 30.4917L28.8521 32.0017L24.3921 27.5417C21.7893 29.4769 18.6354 30.5282 15.3921 30.5417C13.382 30.5722 11.3859 30.2026 9.51993 29.4544C7.654 28.7063 5.95552 27.5944 4.52333 26.1836C3.09115 24.7728 1.95386 23.0913 1.17765 21.2368C0.401449 19.3824 0.00183443 17.3921 0.00206581 15.3817C-0.0311297 13.3731 0.336036 11.3779 1.08214 9.51262C1.82824 7.64735 2.93835 5.94934 4.34768 4.51767C5.75701 3.086 7.43735 1.94933 9.29065 1.17399C11.144 0.39864 13.1331 0.00014305 15.1421 0.00174512C17.1505 -0.0287307 19.145 0.340226 21.0096 1.08718C22.8742 1.83413 24.5718 2.94418 26.0037 4.35284C27.4356 5.7615 28.5733 7.44068 29.3507 9.29281C30.1281 11.1449 30.5296 13.1331 30.5321 15.1417C30.548 17.1846 30.1555 19.2101 29.3776 21.0991C28.5997 22.9881 27.452 24.7026 26.0021 26.1417ZM28.3521 15.2617C28.367 13.5275 28.0347 11.8078 27.3749 10.204C26.715 8.60009 25.7409 7.14446 24.5099 5.92279C23.279 4.70113 21.816 3.73812 20.2071 3.09048C18.5983 2.44284 16.8761 2.12367 15.1421 2.15175C13.4188 2.15156 11.7126 2.49401 10.1229 3.15917C8.53316 3.82433 7.09152 4.79893 5.88184 6.02629C4.67217 7.25364 3.71859 8.70926 3.07656 10.3085C2.43454 11.9077 2.11688 13.6186 2.14207 15.3417C2.14188 17.065 2.48433 18.7712 3.14949 20.3609C3.81465 21.9507 4.78925 23.3923 6.01661 24.602C7.24396 25.8116 8.69958 26.7652 10.2988 27.4072C11.898 28.0493 13.609 28.3669 15.3321 28.3417C17.0494 28.3471 18.7507 28.0121 20.3378 27.3561C21.9249 26.7002 23.3663 25.7363 24.5788 24.5201C25.7912 23.3039 26.7507 21.8596 27.4018 20.2705C28.0529 18.6814 28.3826 16.979 28.3721 15.2617H28.3521Z" fill="#BFBFBF"/>
</svg>
